<mxfile host="app.diagrams.net" agent="Mozilla/5.0 (Windows NT 10.0; Win64; x64) AppleWebKit/537.36 (KHTML, like Gecko) Chrome/128.0.0.0 Safari/537.36 OPR/114.0.0.0 (Edition std-1)" version="24.9.2">
  <diagram name="Página-1" id="NRUlFzaVZ5ilvM13Q_8y">
    <mxGraphModel dx="1345" dy="764" grid="1" gridSize="10" guides="1" tooltips="1" connect="1" arrows="1" fold="1" page="1" pageScale="1" pageWidth="827" pageHeight="1169" math="0" shadow="0">
      <root>
        <mxCell id="0" />
        <mxCell id="1" parent="0" />
        <mxCell id="ML-5L4vDdGCtkoJTGzOv-166" value="" style="whiteSpace=wrap;html=1;aspect=fixed;fillColor=#1ba1e2;strokeColor=#006EAF;fontColor=#ffffff;" vertex="1" parent="1">
          <mxGeometry x="40" y="30" width="600" height="600" as="geometry" />
        </mxCell>
        <mxCell id="ML-5L4vDdGCtkoJTGzOv-167" value="" style="endArrow=none;html=1;rounded=0;exitX=-0.001;exitY=0.062;exitDx=0;exitDy=0;exitPerimeter=0;entryX=1.003;entryY=0.064;entryDx=0;entryDy=0;entryPerimeter=0;" edge="1" parent="1" source="ML-5L4vDdGCtkoJTGzOv-166" target="ML-5L4vDdGCtkoJTGzOv-166">
          <mxGeometry width="50" height="50" relative="1" as="geometry">
            <mxPoint x="490" y="310" as="sourcePoint" />
            <mxPoint x="638" y="63" as="targetPoint" />
          </mxGeometry>
        </mxCell>
        <mxCell id="ML-5L4vDdGCtkoJTGzOv-168" value="&lt;font color=&quot;#ffffff&quot; style=&quot;font-size: 20px;&quot;&gt;Inicio&lt;/font&gt;" style="text;html=1;align=center;verticalAlign=middle;whiteSpace=wrap;rounded=0;" vertex="1" parent="1">
          <mxGeometry x="50" y="30" width="60" height="30" as="geometry" />
        </mxCell>
        <mxCell id="ML-5L4vDdGCtkoJTGzOv-170" value="" style="ellipse;whiteSpace=wrap;html=1;aspect=fixed;fillColor=none;" vertex="1" parent="1">
          <mxGeometry x="610" y="35" width="20" height="20" as="geometry" />
        </mxCell>
        <mxCell id="ML-5L4vDdGCtkoJTGzOv-171" value="" style="ellipse;whiteSpace=wrap;html=1;aspect=fixed;fillColor=none;" vertex="1" parent="1">
          <mxGeometry x="580" y="35" width="20" height="20" as="geometry" />
        </mxCell>
        <mxCell id="ML-5L4vDdGCtkoJTGzOv-176" value="" style="ellipse;whiteSpace=wrap;html=1;aspect=fixed;fillColor=none;" vertex="1" parent="1">
          <mxGeometry x="550" y="35" width="20" height="20" as="geometry" />
        </mxCell>
        <mxCell id="ML-5L4vDdGCtkoJTGzOv-177" value="&lt;font style=&quot;font-size: 18px;&quot;&gt;IMAGEN&lt;/font&gt;" style="ellipse;whiteSpace=wrap;html=1;aspect=fixed;fillColor=#bac8d3;strokeColor=#23445d;" vertex="1" parent="1">
          <mxGeometry x="275" y="140" width="130" height="130" as="geometry" />
        </mxCell>
        <mxCell id="ML-5L4vDdGCtkoJTGzOv-178" value="&lt;font style=&quot;font-size: 34px;&quot; color=&quot;#99ccff&quot;&gt;¡BIENVENIDO!&lt;/font&gt;" style="text;html=1;align=center;verticalAlign=middle;whiteSpace=wrap;rounded=0;" vertex="1" parent="1">
          <mxGeometry x="265" y="310" width="150" height="70" as="geometry" />
        </mxCell>
        <mxCell id="ML-5L4vDdGCtkoJTGzOv-179" value="&lt;font color=&quot;#99ccff&quot; style=&quot;font-size: 15px;&quot;&gt;Ingrese su tipo de usuario&lt;/font&gt;" style="text;html=1;align=center;verticalAlign=middle;whiteSpace=wrap;rounded=0;" vertex="1" parent="1">
          <mxGeometry x="245" y="380" width="190" height="10" as="geometry" />
        </mxCell>
        <mxCell id="ML-5L4vDdGCtkoJTGzOv-180" value="" style="rounded=0;whiteSpace=wrap;html=1;fillColor=#000000;" vertex="1" parent="1">
          <mxGeometry x="140" y="450" width="145" height="90" as="geometry" />
        </mxCell>
        <mxCell id="ML-5L4vDdGCtkoJTGzOv-181" value="&lt;font color=&quot;#ffffff&quot; style=&quot;font-size: 23px;&quot;&gt;Médico&lt;/font&gt;" style="text;html=1;align=center;verticalAlign=middle;whiteSpace=wrap;rounded=0;" vertex="1" parent="1">
          <mxGeometry x="182.5" y="480" width="60" height="30" as="geometry" />
        </mxCell>
        <mxCell id="ML-5L4vDdGCtkoJTGzOv-182" value="" style="rounded=0;whiteSpace=wrap;html=1;fillColor=#000000;" vertex="1" parent="1">
          <mxGeometry x="405" y="450" width="145" height="90" as="geometry" />
        </mxCell>
        <mxCell id="ML-5L4vDdGCtkoJTGzOv-183" value="&lt;font color=&quot;#ffffff&quot;&gt;&lt;span style=&quot;font-size: 23px;&quot;&gt;Secretario&lt;/span&gt;&lt;/font&gt;" style="text;html=1;align=center;verticalAlign=middle;whiteSpace=wrap;rounded=0;" vertex="1" parent="1">
          <mxGeometry x="447.5" y="480" width="60" height="30" as="geometry" />
        </mxCell>
      </root>
    </mxGraphModel>
  </diagram>
</mxfile>
